<mxfile host="app.diagrams.net" modified="2024-06-12T12:34:46.752Z" agent="Mozilla/5.0 (Windows NT 10.0; Win64; x64) AppleWebKit/537.36 (KHTML, like Gecko) Chrome/124.0.0.0 Safari/537.36" etag="eMpWwaHY9od-GI4gwYvJ" version="24.5.3" type="device">
  <diagram name="Page-1" id="3anp14SKU4uwGDxs8q40">
    <mxGraphModel dx="756" dy="410" grid="1" gridSize="10" guides="1" tooltips="1" connect="1" arrows="1" fold="1" page="1" pageScale="1" pageWidth="850" pageHeight="1500" math="0" shadow="0">
      <root>
        <mxCell id="0" />
        <mxCell id="1" parent="0" />
        <mxCell id="Eat6vs9bklKm0_UcorFD-28" style="edgeStyle=orthogonalEdgeStyle;rounded=0;orthogonalLoop=1;jettySize=auto;html=1;entryX=0.5;entryY=0;entryDx=0;entryDy=0;" edge="1" parent="1" source="Eat6vs9bklKm0_UcorFD-1" target="Eat6vs9bklKm0_UcorFD-2">
          <mxGeometry relative="1" as="geometry" />
        </mxCell>
        <mxCell id="Eat6vs9bklKm0_UcorFD-1" value="Start" style="ellipse;whiteSpace=wrap;html=1;" vertex="1" parent="1">
          <mxGeometry x="365" y="50" width="120" height="50" as="geometry" />
        </mxCell>
        <mxCell id="Eat6vs9bklKm0_UcorFD-39" style="edgeStyle=orthogonalEdgeStyle;rounded=0;orthogonalLoop=1;jettySize=auto;html=1;exitX=0.5;exitY=1;exitDx=0;exitDy=0;entryX=0.5;entryY=0;entryDx=0;entryDy=0;" edge="1" parent="1" source="Eat6vs9bklKm0_UcorFD-2" target="Eat6vs9bklKm0_UcorFD-35">
          <mxGeometry relative="1" as="geometry" />
        </mxCell>
        <mxCell id="Eat6vs9bklKm0_UcorFD-2" value="Enter amount" style="shape=parallelogram;perimeter=parallelogramPerimeter;whiteSpace=wrap;html=1;fixedSize=1;" vertex="1" parent="1">
          <mxGeometry x="365" y="160" width="120" height="50" as="geometry" />
        </mxCell>
        <mxCell id="Eat6vs9bklKm0_UcorFD-42" style="edgeStyle=orthogonalEdgeStyle;rounded=0;orthogonalLoop=1;jettySize=auto;html=1;exitX=1;exitY=0.5;exitDx=0;exitDy=0;" edge="1" parent="1" source="Eat6vs9bklKm0_UcorFD-3" target="Eat6vs9bklKm0_UcorFD-5">
          <mxGeometry relative="1" as="geometry" />
        </mxCell>
        <mxCell id="Eat6vs9bklKm0_UcorFD-57" value="No" style="edgeLabel;html=1;align=center;verticalAlign=middle;resizable=0;points=[];" vertex="1" connectable="0" parent="Eat6vs9bklKm0_UcorFD-42">
          <mxGeometry relative="1" as="geometry">
            <mxPoint as="offset" />
          </mxGeometry>
        </mxCell>
        <mxCell id="Eat6vs9bklKm0_UcorFD-43" style="edgeStyle=orthogonalEdgeStyle;rounded=0;orthogonalLoop=1;jettySize=auto;html=1;entryX=0.5;entryY=0;entryDx=0;entryDy=0;" edge="1" parent="1" source="Eat6vs9bklKm0_UcorFD-3" target="Eat6vs9bklKm0_UcorFD-6">
          <mxGeometry relative="1" as="geometry" />
        </mxCell>
        <mxCell id="Eat6vs9bklKm0_UcorFD-59" value="Yes" style="edgeLabel;html=1;align=center;verticalAlign=middle;resizable=0;points=[];" vertex="1" connectable="0" parent="Eat6vs9bklKm0_UcorFD-43">
          <mxGeometry relative="1" as="geometry">
            <mxPoint as="offset" />
          </mxGeometry>
        </mxCell>
        <mxCell id="Eat6vs9bklKm0_UcorFD-3" value="Check if amount&lt;div&gt;&amp;lt;=&lt;div&gt;Loan limit&lt;/div&gt;&lt;/div&gt;" style="rhombus;whiteSpace=wrap;html=1;" vertex="1" parent="1">
          <mxGeometry x="355" y="450" width="140" height="120" as="geometry" />
        </mxCell>
        <mxCell id="Eat6vs9bklKm0_UcorFD-5" value="Please enter an amount&lt;div&gt;&amp;nbsp;less than or equal to&amp;nbsp;&lt;/div&gt;&lt;div&gt;yourloan limit&lt;/div&gt;" style="shape=parallelogram;perimeter=parallelogramPerimeter;whiteSpace=wrap;html=1;fixedSize=1;" vertex="1" parent="1">
          <mxGeometry x="590" y="480" width="170" height="60" as="geometry" />
        </mxCell>
        <mxCell id="Eat6vs9bklKm0_UcorFD-44" style="edgeStyle=orthogonalEdgeStyle;rounded=0;orthogonalLoop=1;jettySize=auto;html=1;exitX=0.5;exitY=1;exitDx=0;exitDy=0;entryX=0.5;entryY=0;entryDx=0;entryDy=0;" edge="1" parent="1" source="Eat6vs9bklKm0_UcorFD-6" target="Eat6vs9bklKm0_UcorFD-7">
          <mxGeometry relative="1" as="geometry" />
        </mxCell>
        <mxCell id="Eat6vs9bklKm0_UcorFD-6" value="Process transaction and transfer loan to users number" style="shape=process;whiteSpace=wrap;html=1;backgroundOutline=1;" vertex="1" parent="1">
          <mxGeometry x="365" y="650" width="120" height="60" as="geometry" />
        </mxCell>
        <mxCell id="Eat6vs9bklKm0_UcorFD-46" style="edgeStyle=orthogonalEdgeStyle;rounded=0;orthogonalLoop=1;jettySize=auto;html=1;exitX=1;exitY=0.5;exitDx=0;exitDy=0;" edge="1" parent="1" source="Eat6vs9bklKm0_UcorFD-7" target="Eat6vs9bklKm0_UcorFD-11">
          <mxGeometry relative="1" as="geometry" />
        </mxCell>
        <mxCell id="Eat6vs9bklKm0_UcorFD-47" value="No" style="edgeLabel;html=1;align=center;verticalAlign=middle;resizable=0;points=[];" vertex="1" connectable="0" parent="Eat6vs9bklKm0_UcorFD-46">
          <mxGeometry relative="1" as="geometry">
            <mxPoint as="offset" />
          </mxGeometry>
        </mxCell>
        <mxCell id="Eat6vs9bklKm0_UcorFD-7" value="Check if transaction&amp;nbsp;&lt;div&gt;was succesful&lt;/div&gt;" style="rhombus;whiteSpace=wrap;html=1;" vertex="1" parent="1">
          <mxGeometry x="350" y="800" width="150" height="130" as="geometry" />
        </mxCell>
        <mxCell id="Eat6vs9bklKm0_UcorFD-49" style="edgeStyle=orthogonalEdgeStyle;rounded=0;orthogonalLoop=1;jettySize=auto;html=1;exitX=0.5;exitY=1;exitDx=0;exitDy=0;exitPerimeter=0;entryX=0.5;entryY=0;entryDx=0;entryDy=0;" edge="1" parent="1" source="Eat6vs9bklKm0_UcorFD-8" target="Eat6vs9bklKm0_UcorFD-9">
          <mxGeometry relative="1" as="geometry" />
        </mxCell>
        <mxCell id="Eat6vs9bklKm0_UcorFD-8" value="save Loan details" style="shape=cylinder3;whiteSpace=wrap;html=1;boundedLbl=1;backgroundOutline=1;size=15;" vertex="1" parent="1">
          <mxGeometry x="395" y="1010" width="60" height="80" as="geometry" />
        </mxCell>
        <mxCell id="Eat6vs9bklKm0_UcorFD-50" style="edgeStyle=orthogonalEdgeStyle;rounded=0;orthogonalLoop=1;jettySize=auto;html=1;exitX=0.5;exitY=1;exitDx=0;exitDy=0;entryX=0.5;entryY=0;entryDx=0;entryDy=0;" edge="1" parent="1" source="Eat6vs9bklKm0_UcorFD-9" target="Eat6vs9bklKm0_UcorFD-10">
          <mxGeometry relative="1" as="geometry" />
        </mxCell>
        <mxCell id="Eat6vs9bklKm0_UcorFD-9" value="Loan application&amp;nbsp;&lt;div&gt;successful&lt;/div&gt;" style="shape=parallelogram;perimeter=parallelogramPerimeter;whiteSpace=wrap;html=1;fixedSize=1;" vertex="1" parent="1">
          <mxGeometry x="360" y="1170" width="130" height="50" as="geometry" />
        </mxCell>
        <mxCell id="Eat6vs9bklKm0_UcorFD-10" value="Stop" style="ellipse;whiteSpace=wrap;html=1;" vertex="1" parent="1">
          <mxGeometry x="370" y="1290" width="110" height="50" as="geometry" />
        </mxCell>
        <mxCell id="Eat6vs9bklKm0_UcorFD-11" value="Something went wrong&lt;div&gt;please try again&lt;/div&gt;" style="shape=parallelogram;perimeter=parallelogramPerimeter;whiteSpace=wrap;html=1;fixedSize=1;" vertex="1" parent="1">
          <mxGeometry x="640" y="835" width="120" height="60" as="geometry" />
        </mxCell>
        <mxCell id="Eat6vs9bklKm0_UcorFD-40" style="edgeStyle=orthogonalEdgeStyle;rounded=0;orthogonalLoop=1;jettySize=auto;html=1;exitX=0;exitY=0.5;exitDx=0;exitDy=0;" edge="1" parent="1" source="Eat6vs9bklKm0_UcorFD-35" target="Eat6vs9bklKm0_UcorFD-37">
          <mxGeometry relative="1" as="geometry" />
        </mxCell>
        <mxCell id="Eat6vs9bklKm0_UcorFD-55" value="No" style="edgeLabel;html=1;align=center;verticalAlign=middle;resizable=0;points=[];" vertex="1" connectable="0" parent="Eat6vs9bklKm0_UcorFD-40">
          <mxGeometry relative="1" as="geometry">
            <mxPoint as="offset" />
          </mxGeometry>
        </mxCell>
        <mxCell id="Eat6vs9bklKm0_UcorFD-41" style="edgeStyle=orthogonalEdgeStyle;rounded=0;orthogonalLoop=1;jettySize=auto;html=1;exitX=0.5;exitY=1;exitDx=0;exitDy=0;entryX=0.5;entryY=0;entryDx=0;entryDy=0;" edge="1" parent="1" source="Eat6vs9bklKm0_UcorFD-35" target="Eat6vs9bklKm0_UcorFD-3">
          <mxGeometry relative="1" as="geometry">
            <Array as="points">
              <mxPoint x="425" y="400" />
              <mxPoint x="425" y="400" />
            </Array>
          </mxGeometry>
        </mxCell>
        <mxCell id="Eat6vs9bklKm0_UcorFD-56" value="Yes" style="edgeLabel;html=1;align=center;verticalAlign=middle;resizable=0;points=[];" vertex="1" connectable="0" parent="Eat6vs9bklKm0_UcorFD-41">
          <mxGeometry relative="1" as="geometry">
            <mxPoint as="offset" />
          </mxGeometry>
        </mxCell>
        <mxCell id="Eat6vs9bklKm0_UcorFD-35" value="Check if&amp;nbsp;&lt;div&gt;user has existing loan&lt;/div&gt;" style="rhombus;whiteSpace=wrap;html=1;" vertex="1" parent="1">
          <mxGeometry x="370" y="275" width="110" height="110" as="geometry" />
        </mxCell>
        <mxCell id="Eat6vs9bklKm0_UcorFD-37" value="You have an existing&amp;nbsp;&lt;div&gt;loan,please pay you loan to access a new one&lt;/div&gt;" style="shape=parallelogram;perimeter=parallelogramPerimeter;whiteSpace=wrap;html=1;fixedSize=1;" vertex="1" parent="1">
          <mxGeometry x="130" y="300" width="180" height="60" as="geometry" />
        </mxCell>
        <mxCell id="Eat6vs9bklKm0_UcorFD-45" style="edgeStyle=orthogonalEdgeStyle;rounded=0;orthogonalLoop=1;jettySize=auto;html=1;exitX=0.5;exitY=1;exitDx=0;exitDy=0;entryX=0.5;entryY=0;entryDx=0;entryDy=0;entryPerimeter=0;" edge="1" parent="1" source="Eat6vs9bklKm0_UcorFD-7" target="Eat6vs9bklKm0_UcorFD-8">
          <mxGeometry relative="1" as="geometry" />
        </mxCell>
        <mxCell id="Eat6vs9bklKm0_UcorFD-48" value="Yes" style="edgeLabel;html=1;align=center;verticalAlign=middle;resizable=0;points=[];" vertex="1" connectable="0" parent="Eat6vs9bklKm0_UcorFD-45">
          <mxGeometry relative="1" as="geometry">
            <mxPoint as="offset" />
          </mxGeometry>
        </mxCell>
        <mxCell id="Eat6vs9bklKm0_UcorFD-51" value="" style="endArrow=classic;html=1;rounded=0;exitX=1;exitY=0.5;exitDx=0;exitDy=0;" edge="1" parent="1" source="Eat6vs9bklKm0_UcorFD-5">
          <mxGeometry width="50" height="50" relative="1" as="geometry">
            <mxPoint x="745" y="497" as="sourcePoint" />
            <mxPoint x="425" y="130" as="targetPoint" />
            <Array as="points">
              <mxPoint x="800" y="510" />
              <mxPoint x="800" y="130" />
            </Array>
          </mxGeometry>
        </mxCell>
        <mxCell id="Eat6vs9bklKm0_UcorFD-53" value="" style="endArrow=classic;html=1;rounded=0;" edge="1" parent="1">
          <mxGeometry width="50" height="50" relative="1" as="geometry">
            <mxPoint x="750" y="863" as="sourcePoint" />
            <mxPoint x="426" y="110" as="targetPoint" />
            <Array as="points">
              <mxPoint x="806" y="863" />
              <mxPoint x="806" y="110" />
            </Array>
          </mxGeometry>
        </mxCell>
        <mxCell id="Eat6vs9bklKm0_UcorFD-54" value="" style="endArrow=classic;html=1;rounded=0;exitX=0;exitY=0.5;exitDx=0;exitDy=0;" edge="1" parent="1" source="Eat6vs9bklKm0_UcorFD-37">
          <mxGeometry width="50" height="50" relative="1" as="geometry">
            <mxPoint x="140" y="335" as="sourcePoint" />
            <mxPoint x="426" y="1264" as="targetPoint" />
            <Array as="points">
              <mxPoint x="86" y="330" />
              <mxPoint x="86" y="1264" />
            </Array>
          </mxGeometry>
        </mxCell>
      </root>
    </mxGraphModel>
  </diagram>
</mxfile>
